<?xml version="1.0" encoding="UTF-8" standalone="no"?>
<!DOCTYPE svg PUBLIC "-//W3C//DTD SVG 1.1//EN" "http://www.w3.org/Graphics/SVG/1.1/DTD/svg11.dtd">
<svg width="100%" height="100%" viewBox="0 0 319 318" version="1.1" xmlns="http://www.w3.org/2000/svg" xmlns:xlink="http://www.w3.org/1999/xlink" xml:space="preserve" xmlns:serif="http://www.serif.com/" style="fill-rule:evenodd;clip-rule:evenodd;stroke-linejoin:round;stroke-miterlimit:2;">
    <g transform="matrix(1.73011,0,0,1.48995,0,0)">
        <path d="M166.2,135.4C165.5,133.8 164,132.9 162.3,132.9L110.8,133.3C83,133.3 59.6,112.5 56.2,85L56.1,84.5L56.6,84.3C63.4,81.4 70.7,79.9 78.2,79.9L135.2,79.9C138.8,79.9 142.2,78 144,74.8L183.4,6.4C184.2,4.9 184.1,3.2 183.1,1.8C182.4,0.6 181,0 179.5,0L110.8,0C91.2,0 72.5,7.3 58,20.5C43.7,33.7 34.8,51.6 33,70.9L33,71.2L32.8,71.4C12.2,86.1 0,109.8 0,134.9C0,178 35.1,213.1 78.3,213.1L117.8,212.8C121.4,212.8 124.7,210.8 126.5,207.7L165.8,139.4C166.6,138.1 166.7,136.6 166.2,135.4ZM78.2,190C61,190 45,182.1 34.5,168.4C24,154.7 20.6,137 25.2,119.8C27,113.3 30.1,107.1 34.6,101.4L35.7,100.1L36.1,101.3C40.9,117 50.8,131 64,140.9C77.6,151.1 93.9,156.5 110.9,156.5L124.2,156.4C125.3,156.4 126.3,157 126.8,157.9C127.3,158.8 127.3,159.9 126.8,160.9L112.2,186.3C110.9,188.5 108.6,189.9 106.1,189.9L78.2,190ZM59.7,57.9C68.1,36.8 88.2,23.2 110.8,23.2L141.8,23.2C142.9,23.2 143.8,23.7 144.4,24.7C144.9,25.6 144.9,26.7 144.4,27.7L129.7,53.2C128.4,55.4 126.1,56.8 123.5,56.8L78.2,56.8C72.2,56.8 66.2,57.5 60.4,58.8L59.2,59L59.7,57.9Z" style="fill:rgb(6,167,108);fill-rule:nonzero;"/>
    </g>
</svg>
