<?xml version="1.0" encoding="UTF-8" standalone="no"?>
<!DOCTYPE svg PUBLIC "-//W3C//DTD SVG 1.1//EN" "http://www.w3.org/Graphics/SVG/1.1/DTD/svg11.dtd">
<svg width="100%" height="100%" viewBox="0 0 1225 288" version="1.1" xmlns="http://www.w3.org/2000/svg" xmlns:xlink="http://www.w3.org/1999/xlink" xml:space="preserve" xmlns:serif="http://www.serif.com/" style="fill-rule:evenodd;clip-rule:evenodd;stroke-linejoin:round;stroke-miterlimit:2;">
    <path d="M166.2,135.4C165.5,133.8 164,132.9 162.3,132.9L110.8,133.3C83,133.3 59.6,112.5 56.2,85L56.1,84.5L56.6,84.3C63.4,81.4 70.7,79.9 78.2,79.9L135.2,79.9C138.8,79.9 142.2,78 144,74.8L183.4,6.4C184.2,4.9 184.1,3.2 183.1,1.8C182.4,0.6 181,0 179.5,0L110.8,0C91.2,0 72.5,7.3 58,20.5C43.7,33.7 34.8,51.6 33,70.9L33,71.2L32.8,71.4C12.2,86.1 0,109.8 0,134.9C0,178 35.1,213.1 78.3,213.1L117.8,212.8C121.4,212.8 124.7,210.8 126.5,207.7L165.8,139.4C166.6,138.1 166.7,136.6 166.2,135.4ZM78.2,190C61,190 45,182.1 34.5,168.4C24,154.7 20.6,137 25.2,119.8C27,113.3 30.1,107.1 34.6,101.4L35.7,100.1L36.1,101.3C40.9,117 50.8,131 64,140.9C77.6,151.1 93.9,156.5 110.9,156.5L124.2,156.4C125.3,156.4 126.3,157 126.8,157.9C127.3,158.8 127.3,159.9 126.8,160.9L112.2,186.3C110.9,188.5 108.6,189.9 106.1,189.9L78.2,190ZM59.7,57.9C68.1,36.8 88.2,23.2 110.8,23.2L141.8,23.2C142.9,23.2 143.8,23.7 144.4,24.7C144.9,25.6 144.9,26.7 144.4,27.7L129.7,53.2C128.4,55.4 126.1,56.8 123.5,56.8L78.2,56.8C72.2,56.8 66.2,57.5 60.4,58.8L59.2,59L59.7,57.9Z" style="fill:rgb(6,167,108);fill-rule:nonzero;"/>
    <g>
        <path d="M243.8,132.9C224.2,132.9 206.4,139.3 193.6,151C178.8,164.6 170.9,185.2 170.9,210.6C170.9,235.9 178.7,256.4 193.5,269.9C206.2,281.4 224,287.7 243.7,287.7C260.2,287.7 299.5,282.8 307.8,237.2C308,236.1 307.7,235.1 307,234.3C306.3,233.5 305.4,233.1 304.4,233.1L283.6,233.1C282.1,233.1 280.8,234.1 280.3,235.6C275.2,253.2 262.4,264.2 243.4,264.2C215.7,264.2 199.2,243.1 199.2,210.7C199.2,195.2 203.1,180.4 210.5,171.3C218.3,161.7 229.6,156.6 243.4,156.6C262.5,156.6 275.2,167.9 280.4,185.5C280.8,187 282.2,188.1 283.7,188.1L304.4,188.1C305.4,188.1 306.3,187.7 307,186.9C307.7,186.1 308,185 307.8,183.9C299,139.7 263.9,132.9 243.8,132.9Z" style="fill:white;fill-rule:nonzero;"/>
        <path d="M527.8,99.6L527.8,79.9C527.8,78.8 526.9,77.9 525.8,77.9L505.9,77.9C478.4,77.9 461.9,94 461.9,120.9L461.9,134L442.6,134C441.3,134 440.3,135 440.3,136.3L440.3,153.9C440.3,154.5 440.5,155.1 441,155.5C441.4,155.9 442,156.2 442.6,156.2L461.9,156.2L461.9,283.9C461.9,285.2 462.9,286.2 464.2,286.2L490.4,286.2C491.7,286.2 492.7,285.2 492.7,283.9L492.7,156.1L515.2,156.1C516.5,156.1 517.5,155.1 517.5,153.8L517.5,136.2C517.5,134.9 516.5,133.9 515.2,133.9L492.7,133.9L492.7,125.2C492.7,109.2 500,101.4 515.1,101.4L525.8,101.4C526.9,101.6 527.8,100.7 527.8,99.6Z" style="fill:white;fill-rule:nonzero;"/>
        <path d="M641,269.3C655.7,255.7 663.5,235.3 663.5,210.4C663.5,185.5 655.7,165.1 641,151.5C628.2,139.6 610.4,133.1 591,133.1C557.5,133.1 518.5,153.3 518.5,210.4C518.5,236.6 526.5,256.8 542.2,270.5C554.9,281.6 572.3,287.7 591,287.7C610.4,287.7 628.2,281.1 641,269.3ZM559.7,251.6C551.2,242.4 546.8,227.3 546.8,210.4C546.8,193.5 551.1,178.4 559.7,169.2C567.5,160.8 578.3,156.4 591,156.4C603.6,156.4 614.3,160.8 622,169.3C630.5,178.6 634.8,193.6 634.8,210.5C634.8,227.4 630.5,242.5 622,251.7C614.3,260.1 603.5,264.5 591,264.5C578.3,264.4 567.5,260 559.7,251.6Z" style="fill:white;fill-rule:nonzero;"/>
        <path d="M324.8,286L426.2,286C428.1,286 429.7,284.4 429.7,282.5L429.7,266.9C429.7,265 428.1,263.4 426.2,263.4L355,263.4L355,260.4C355,248.8 365.1,241.2 387.7,228.3L389.3,227.4C407.6,217.4 430.3,205 430.3,176.4C430.3,149 410.4,132.7 377.2,132.7C356.2,132.7 341.1,139 332.3,151.4C324.8,161.9 323.7,174.5 323.7,181.1L323.7,184.2C323.7,186.1 325.3,187.7 327.2,187.7L347.9,187.7C349.8,187.7 351.4,186.1 351.4,184.2L351.4,182.4C351.4,166.1 361.1,155.9 376.8,155.9C385,155.9 391.8,158.3 396.1,162.7C399.9,166.6 401.7,171.8 401.5,178.4C401.3,195 387.5,202.6 369.9,212.2C367.4,213.5 364.9,214.9 362.4,216.4C328,236.2 321.5,254.3 321.5,280.6L321.5,282.2C321.3,284.5 322.9,286 324.8,286Z" style="fill:white;fill-rule:nonzero;"/>
    </g>
    <g>
        <path d="M661.4,143.8L657.4,143.8L657.4,154.5L655.2,154.5L655.2,143.8L651.4,143.8L651.4,142L661.4,142L661.4,143.8Z" style="fill:rgb(57,57,57);fill-rule:nonzero;"/>
        <path d="M665.8,142L669.5,151.6L673.2,142L676,142L676,154.5L673.8,154.5L673.8,150.4L674.1,144.8L670.4,154.5L668.8,154.5L665.1,144.8L665.4,150.4L665.4,154.5L663.2,154.5L663.2,142L665.8,142Z" style="fill:rgb(57,57,57);fill-rule:nonzero;"/>
    </g>
    <g transform="matrix(20.0369,-0.0143346,0.0143346,20.0369,-11598.1,-482.618)">
        <g transform="matrix(12,0,0,12,611.831,37.2066)">
            <path d="M0.077,0.111C0.062,0.111 0.049,0.107 0.038,0.099C0.026,0.09 0.02,0.077 0.02,0.058C0.02,0.036 0.023,0.016 0.029,-0.003C0.036,-0.035 0.041,-0.067 0.044,-0.098C0.031,-0.108 0.025,-0.117 0.025,-0.126C0.025,-0.132 0.027,-0.136 0.032,-0.138C0.036,-0.139 0.042,-0.141 0.051,-0.143C0.078,-0.294 0.108,-0.45 0.142,-0.611C0.145,-0.618 0.151,-0.622 0.161,-0.622C0.174,-0.622 0.188,-0.617 0.205,-0.607C0.221,-0.597 0.229,-0.586 0.229,-0.574C0.228,-0.571 0.228,-0.568 0.227,-0.566C0.226,-0.564 0.225,-0.56 0.225,-0.555C0.248,-0.569 0.271,-0.576 0.295,-0.576C0.313,-0.576 0.33,-0.572 0.347,-0.563C0.364,-0.554 0.378,-0.54 0.391,-0.521C0.404,-0.503 0.413,-0.483 0.419,-0.462C0.425,-0.44 0.428,-0.418 0.428,-0.395C0.428,-0.334 0.412,-0.28 0.381,-0.232C0.349,-0.184 0.307,-0.148 0.255,-0.124C0.236,-0.113 0.216,-0.106 0.197,-0.102C0.177,-0.097 0.157,-0.093 0.138,-0.09L0.108,0.095C0.108,0.104 0.105,0.109 0.1,0.11C0.094,0.111 0.086,0.111 0.077,0.111ZM0.15,-0.162C0.212,-0.183 0.259,-0.218 0.292,-0.266C0.324,-0.314 0.34,-0.369 0.34,-0.432C0.341,-0.462 0.335,-0.492 0.323,-0.521C0.316,-0.533 0.308,-0.539 0.298,-0.539C0.281,-0.539 0.266,-0.532 0.253,-0.519C0.24,-0.506 0.23,-0.49 0.221,-0.472C0.212,-0.454 0.205,-0.437 0.199,-0.422L0.199,-0.419C0.181,-0.334 0.165,-0.248 0.15,-0.162Z" style="fill:rgb(6,167,108);fill-rule:nonzero;"/>
        </g>
        <g transform="matrix(12,0,0,12,617.207,37.2066)">
            <path d="M0.295,0.025C0.284,0.025 0.271,0.022 0.258,0.015C0.245,0.008 0.236,-0.001 0.231,-0.011C0.214,-0.006 0.195,-0.003 0.176,-0.003C0.154,-0.003 0.132,-0.007 0.11,-0.015C0.079,-0.027 0.056,-0.046 0.042,-0.073C0.027,-0.1 0.02,-0.128 0.02,-0.159C0.02,-0.198 0.03,-0.236 0.049,-0.271C0.065,-0.298 0.088,-0.322 0.117,-0.343C0.146,-0.363 0.175,-0.373 0.206,-0.373C0.235,-0.373 0.262,-0.361 0.287,-0.336C0.3,-0.32 0.31,-0.303 0.315,-0.284C0.32,-0.265 0.324,-0.245 0.325,-0.226C0.351,-0.289 0.37,-0.355 0.382,-0.422L0.386,-0.479C0.386,-0.494 0.385,-0.508 0.382,-0.521C0.382,-0.537 0.374,-0.546 0.359,-0.547L0.306,-0.543C0.281,-0.532 0.261,-0.521 0.246,-0.51C0.231,-0.499 0.214,-0.483 0.193,-0.464C0.191,-0.464 0.187,-0.46 0.18,-0.452C0.173,-0.444 0.167,-0.438 0.163,-0.434C0.163,-0.426 0.162,-0.422 0.161,-0.423C0.159,-0.423 0.154,-0.422 0.147,-0.42C0.132,-0.42 0.122,-0.425 0.117,-0.435C0.111,-0.444 0.108,-0.453 0.108,-0.46C0.108,-0.478 0.116,-0.496 0.132,-0.515C0.148,-0.534 0.166,-0.55 0.185,-0.565C0.204,-0.58 0.22,-0.59 0.231,-0.596C0.254,-0.604 0.278,-0.608 0.304,-0.608C0.333,-0.608 0.362,-0.603 0.39,-0.592C0.417,-0.581 0.438,-0.563 0.453,-0.539C0.462,-0.526 0.468,-0.511 0.472,-0.496C0.475,-0.481 0.477,-0.464 0.477,-0.447C0.477,-0.416 0.473,-0.384 0.465,-0.353C0.456,-0.321 0.447,-0.293 0.438,-0.268C0.404,-0.171 0.364,-0.077 0.317,0.016C0.312,0.022 0.305,0.025 0.295,0.025ZM0.141,-0.06C0.152,-0.06 0.164,-0.063 0.175,-0.069C0.186,-0.074 0.196,-0.08 0.204,-0.086C0.227,-0.101 0.243,-0.12 0.253,-0.143C0.26,-0.17 0.263,-0.196 0.263,-0.223L0.257,-0.271C0.254,-0.288 0.249,-0.302 0.242,-0.313L0.234,-0.313C0.214,-0.304 0.197,-0.294 0.182,-0.284C0.167,-0.274 0.155,-0.26 0.144,-0.241C0.125,-0.209 0.114,-0.175 0.11,-0.139C0.11,-0.126 0.111,-0.11 0.114,-0.092C0.117,-0.073 0.12,-0.064 0.125,-0.064L0.141,-0.06Z" style="fill:rgb(6,167,108);fill-rule:nonzero;"/>
        </g>
        <g transform="matrix(12,0,0,12,622.943,37.2066)">
            <path d="M0.091,0.025C0.078,0.025 0.063,0.02 0.046,0.011C0.029,0.001 0.02,-0.009 0.02,-0.018C0.031,-0.125 0.05,-0.232 0.077,-0.339L0.122,-0.498C0.129,-0.525 0.139,-0.55 0.152,-0.573C0.159,-0.587 0.165,-0.596 0.172,-0.599C0.178,-0.602 0.187,-0.604 0.2,-0.605C0.21,-0.605 0.218,-0.601 0.224,-0.592C0.233,-0.58 0.237,-0.566 0.237,-0.551C0.237,-0.535 0.234,-0.519 0.227,-0.503C0.22,-0.486 0.214,-0.471 0.209,-0.456L0.209,-0.453C0.22,-0.475 0.235,-0.498 0.254,-0.521C0.265,-0.533 0.278,-0.545 0.291,-0.556C0.304,-0.567 0.318,-0.573 0.335,-0.574C0.351,-0.574 0.367,-0.568 0.382,-0.556C0.397,-0.543 0.407,-0.53 0.413,-0.517L0.419,-0.479C0.419,-0.465 0.418,-0.451 0.415,-0.438C0.412,-0.424 0.41,-0.411 0.409,-0.4C0.401,-0.351 0.387,-0.303 0.367,-0.256C0.362,-0.249 0.355,-0.246 0.345,-0.246C0.332,-0.246 0.318,-0.25 0.303,-0.259C0.288,-0.268 0.28,-0.278 0.28,-0.289L0.281,-0.294C0.287,-0.317 0.294,-0.339 0.301,-0.36C0.308,-0.381 0.314,-0.403 0.318,-0.426C0.327,-0.451 0.331,-0.477 0.331,-0.505L0.33,-0.524C0.315,-0.512 0.301,-0.496 0.288,-0.477C0.275,-0.458 0.265,-0.441 0.258,-0.426C0.237,-0.384 0.219,-0.34 0.205,-0.294C0.187,-0.249 0.171,-0.201 0.156,-0.151C0.149,-0.128 0.143,-0.103 0.139,-0.077C0.134,-0.051 0.127,-0.026 0.118,-0.003C0.118,-0 0.116,0.001 0.111,-0L0.107,0.016C0.106,0.022 0.1,0.025 0.091,0.025Z" style="fill:rgb(6,167,108);fill-rule:nonzero;"/>
        </g>
        <g transform="matrix(12,0,0,12,627.971,37.2066)">
            <path d="M0.328,0.006C0.319,0.006 0.31,0.004 0.302,-0.002C0.293,-0.007 0.286,-0.012 0.28,-0.018C0.273,-0.026 0.268,-0.036 0.265,-0.049C0.262,-0.061 0.261,-0.073 0.261,-0.086C0.25,-0.067 0.235,-0.052 0.216,-0.04C0.197,-0.028 0.178,-0.022 0.16,-0.022C0.129,-0.022 0.1,-0.035 0.075,-0.061C0.05,-0.086 0.034,-0.115 0.027,-0.147L0.02,-0.209C0.02,-0.296 0.047,-0.379 0.102,-0.456C0.143,-0.501 0.191,-0.524 0.245,-0.524C0.264,-0.524 0.282,-0.52 0.299,-0.513C0.316,-0.505 0.331,-0.492 0.344,-0.475L0.348,-0.468L0.416,-0.649C0.422,-0.668 0.428,-0.684 0.435,-0.695C0.441,-0.706 0.454,-0.714 0.474,-0.719C0.489,-0.719 0.503,-0.711 0.514,-0.694L0.52,-0.669C0.52,-0.66 0.518,-0.652 0.515,-0.643C0.512,-0.634 0.509,-0.625 0.506,-0.615C0.485,-0.565 0.472,-0.532 0.466,-0.516C0.459,-0.5 0.454,-0.484 0.449,-0.467C0.444,-0.45 0.433,-0.417 0.416,-0.366C0.397,-0.307 0.382,-0.247 0.37,-0.188C0.366,-0.169 0.362,-0.148 0.359,-0.127C0.355,-0.106 0.353,-0.085 0.353,-0.064L0.359,-0.011C0.359,-0.003 0.354,0.002 0.344,0.004L0.328,0.006ZM0.129,-0.086C0.14,-0.09 0.146,-0.093 0.147,-0.095C0.148,-0.096 0.154,-0.101 0.163,-0.109C0.195,-0.146 0.219,-0.183 0.235,-0.218C0.251,-0.253 0.268,-0.289 0.287,-0.328C0.293,-0.331 0.299,-0.332 0.306,-0.332L0.311,-0.402C0.311,-0.423 0.309,-0.44 0.304,-0.451C0.299,-0.462 0.291,-0.468 0.278,-0.469C0.26,-0.469 0.242,-0.462 0.224,-0.447C0.205,-0.432 0.191,-0.417 0.181,-0.404C0.156,-0.367 0.139,-0.327 0.129,-0.283C0.116,-0.246 0.109,-0.208 0.109,-0.168L0.11,-0.143C0.11,-0.136 0.111,-0.126 0.114,-0.114C0.116,-0.102 0.121,-0.093 0.129,-0.086Z" style="fill:rgb(6,167,108);fill-rule:nonzero;"/>
        </g>
        <g transform="matrix(12,0,0,12,633.671,37.2066)">
            <path d="M0.166,0.088C0.146,0.088 0.125,0.083 0.102,0.074C0.079,0.065 0.06,0.051 0.044,0.032C0.028,0.013 0.02,-0.01 0.02,-0.037C0.02,-0.051 0.023,-0.061 0.03,-0.067C0.036,-0.073 0.043,-0.076 0.052,-0.076C0.061,-0.076 0.071,-0.073 0.081,-0.067C0.09,-0.061 0.098,-0.052 0.103,-0.041C0.106,-0.034 0.108,-0.025 0.108,-0.014C0.108,-0.003 0.109,0.006 0.111,0.015C0.112,0.024 0.118,0.028 0.127,0.028C0.144,0.025 0.159,0.019 0.171,0.009C0.183,-0.002 0.193,-0.013 0.201,-0.026C0.218,-0.053 0.231,-0.082 0.24,-0.114C0.249,-0.145 0.258,-0.176 0.265,-0.207C0.27,-0.219 0.273,-0.23 0.273,-0.241C0.262,-0.226 0.248,-0.213 0.233,-0.202C0.217,-0.191 0.198,-0.185 0.175,-0.185C0.144,-0.185 0.118,-0.193 0.099,-0.209C0.079,-0.225 0.065,-0.245 0.056,-0.27C0.047,-0.295 0.042,-0.32 0.042,-0.347C0.044,-0.42 0.057,-0.493 0.08,-0.566C0.085,-0.579 0.09,-0.587 0.096,-0.59C0.1,-0.592 0.109,-0.595 0.122,-0.596C0.127,-0.596 0.134,-0.594 0.142,-0.591C0.149,-0.588 0.155,-0.583 0.16,-0.577C0.167,-0.566 0.171,-0.556 0.171,-0.546C0.171,-0.539 0.17,-0.531 0.167,-0.523C0.164,-0.514 0.16,-0.505 0.156,-0.494C0.148,-0.457 0.142,-0.419 0.137,-0.381C0.132,-0.353 0.13,-0.324 0.13,-0.294C0.131,-0.288 0.133,-0.28 0.134,-0.27C0.135,-0.26 0.137,-0.253 0.141,-0.249L0.139,-0.243C0.153,-0.242 0.166,-0.247 0.179,-0.256C0.203,-0.274 0.223,-0.298 0.24,-0.327C0.256,-0.356 0.27,-0.384 0.281,-0.411L0.352,-0.596C0.357,-0.602 0.363,-0.605 0.37,-0.605L0.391,-0.6C0.4,-0.6 0.411,-0.596 0.422,-0.589C0.433,-0.581 0.439,-0.573 0.439,-0.566L0.44,-0.556C0.44,-0.539 0.437,-0.521 0.431,-0.504C0.425,-0.486 0.42,-0.469 0.416,-0.453C0.406,-0.415 0.397,-0.377 0.39,-0.339C0.377,-0.264 0.359,-0.188 0.337,-0.113C0.328,-0.082 0.317,-0.052 0.303,-0.021C0.289,0.01 0.271,0.036 0.249,0.057C0.227,0.078 0.199,0.088 0.166,0.088Z" style="fill:rgb(6,167,108);fill-rule:nonzero;"/>
        </g>
    </g>
</svg>
